# xmcd CD database file
#
# Track frame offsets:
#	183
#	15393
#	25018
#	37023
#	45728
#	61283
#	71078
#	91728
#	104465
#	119255
#	133355
#	146873
#	159215
#	176073
#	200668
#	214573
#	234780
#	243470
#	259000
#	276980
#
# Disc length: 3874 seconds
#
# Revision: 0
# Processed by: cddbd v1.5PL3 Copyright (c) Steve Scherf et al.
# Submitted via: CDex 1.51
#
DISCID=1f0f2014
DTITLE=Humes, Helen - The New Year's Eve
DYEAR=1900
DGENRE=Jazz
TTITLE0=Don't worry about me
TTITLE1=Love that man
TTITLE2=Birth of the blues
TTITLE3=Let the good times roll
TTITLE4=You've changed
TTITLE5=He may be your man
TTITLE6=Every now and then
TTITLE7=Blue skies
TTITLE8=If you're a viper
TTITLE9=Sunday, Mondfay and always
TTITLE10=The laziest gal in town
TTITLE11=Woe is me
TTITLE12=Blue turning grey over you
TTITLE13=So mean to me
TTITLE14=I want a little boy
TTITLE15=Good for nothin' Joe
TTITLE16=Just in time
TTITLE17=Nobody wants you when you're down and out
TTITLE18=Talk of the town
TTITLE19=Take my man
EXTD=
EXTT0=
EXTT1=
EXTT2=
EXTT3=
EXTT4=
EXTT5=
EXTT6=
EXTT7=
EXTT8=
EXTT9=
EXTT10=
EXTT11=
EXTT12=
EXTT13=
EXTT14=
EXTT15=
EXTT16=
EXTT17=
EXTT18=
EXTT19=
PLAYORDER=
